<svg xmlns="http://www.w3.org/2000/svg" version="1.1" width="750px" height="263px" style="shape-rendering:geometricPrecision; text-rendering:geometricPrecision; image-rendering:optimizeQuality; fill-rule:evenodd; clip-rule:evenodd" xmlns:xlink="http://www.w3.org/1999/xlink">
  <rect width="750" height="263" fill="#c1c2c2"/>
    <g>
    <path style="opacity:1" fill="#c1c2c2" d="M -0.5,-0.5 C 249.5,-0.5 499.5,-0.5 749.5,-0.5C 749.5,87.1667 749.5,174.833 749.5,262.5C 499.5,262.5 249.5,262.5 -0.5,262.5C -0.5,174.833 -0.5,87.1667 -0.5,-0.5 Z" />
  </g>
  <g>
    <path style="opacity:1" fill="#2fd0d2" d="M 205.5,100.5 C 201.958,100.187 198.625,100.521 195.5,101.5C 194.609,100.739 193.942,99.7387 193.5,98.5C 197.167,97.1667 200.833,97.1667 204.5,98.5C 204.863,99.1835 205.196,99.8501 205.5,100.5 Z" />
  </g>
  <g>
    <path style="opacity:1" fill="#47cbce" d="M 373.5,103.5 C 371.407,102.955 369.407,102.122 367.5,101C 353.837,100.5 340.171,100.333 326.5,100.5C 326.5,119.167 326.5,137.833 326.5,156.5C 325.25,156.423 324.417,155.756 324,154.5C 323.5,135.503 323.333,116.503 323.5,97.5C 337.504,97.3334 351.504,97.5001 365.5,98C 368.756,99.116 371.422,100.949 373.5,103.5 Z" />
  </g>
  <g>
    <path style="opacity:1" fill="#37cdd3" d="M 652.5,104.5 C 648.954,103.041 645.288,101.874 641.5,101C 628.504,100.5 615.504,100.333 602.5,100.5C 602.5,119.167 602.5,137.833 602.5,156.5C 600.725,152.614 599.892,148.28 600,143.5C 599.5,128.17 599.333,112.837 599.5,97.5C 613.171,97.3334 626.837,97.5001 640.5,98C 645.299,98.8959 649.299,101.063 652.5,104.5 Z" />
  </g>
  <g>
    <path style="opacity:1" fill="#2deaef" d="M 71.5,108.5 C 65.7338,103.687 59.0671,101.02 51.5,100.5C 39.6783,99.5049 27.6783,99.1716 15.5,99.5C 21.7983,98.1699 28.4649,97.5032 35.5,97.5C 42.1667,97.6667 48.8333,97.8333 55.5,98C 58.9927,98.9419 62.326,100.275 65.5,102C 68.4086,103.406 70.4086,105.572 71.5,108.5 Z" />
  </g>
  <g>
    <path style="opacity:1" fill="#3ce6e8" d="M 163.5,105.5 C 145.69,94.6918 129.19,96.3584 114,110.5C 107.733,118.573 105.9,127.573 108.5,137.5C 102.328,116.362 109.995,102.528 131.5,96C 138.649,95.0884 145.649,95.7551 152.5,98C 156.894,99.5818 160.561,102.082 163.5,105.5 Z" />
  </g>
  <g>
    <path style="opacity:1" fill="#33e7e9" d="M 308.5,102.5 C 295.017,95.6234 283.017,97.6234 272.5,108.5C 271.588,107.262 271.421,105.928 272,104.5C 279.887,95.9786 289.387,93.4786 300.5,97C 303.721,98.104 306.388,99.9374 308.5,102.5 Z" />
  </g>
  <g>
    <path style="opacity:1" fill="#37e5e9" d="M 445.5,104.5 C 444.833,104.5 444.167,104.5 443.5,104.5C 429.792,97.2143 415.792,96.7143 401.5,103C 395.553,107.331 393.22,113.165 394.5,120.5C 389.779,108.591 393.779,100.757 406.5,97C 417.805,94.5458 428.805,95.5458 439.5,100C 442.106,100.792 444.106,102.292 445.5,104.5 Z" />
  </g>
  <g>
    <path style="opacity:1" fill="#36e5e7" d="M 589.5,104.5 C 577.387,98.541 564.721,97.041 551.5,100C 541.607,103.379 537.274,110.212 538.5,120.5C 533.818,108.43 537.818,100.596 550.5,97C 561.813,94.5369 572.813,95.5369 583.5,100C 586.106,100.792 588.106,102.292 589.5,104.5 Z" />
  </g>
  <g>
    <path style="opacity:1" fill="#041223" d="M 51.5,100.5 C 59.0671,101.02 65.7338,103.687 71.5,108.5C 73.2255,110.228 74.5589,112.228 75.5,114.5C 78.0236,124.19 78.0236,133.857 75.5,143.5C 73.9722,146.572 71.9722,149.238 69.5,151.5C 68.4168,151.539 67.4168,151.873 66.5,152.5C 65.8333,151.833 65.1667,151.167 64.5,150.5C 63.7657,152.815 62.4324,154.648 60.5,156C 56.6762,156.433 53.3428,157.599 50.5,159.5C 39.8333,159.5 29.1667,159.5 18.5,159.5C 16.9519,159.179 16.2852,158.179 16.5,156.5C 16.5,137.833 16.5,119.167 16.5,100.5C 28.1667,100.5 39.8333,100.5 51.5,100.5 Z" />
  </g>
  <g>
    <path style="opacity:1" fill="#081025" d="M 185.5,100.5 C 186.833,100.5 187.5,101.167 187.5,102.5C 187.5,121.5 187.5,140.5 187.5,159.5C 184.833,159.5 182.167,159.5 179.5,159.5C 177.952,159.179 177.285,158.179 177.5,156.5C 177.5,137.833 177.5,119.167 177.5,100.5C 180.167,100.5 182.833,100.5 185.5,100.5 Z" />
  </g>
  <g>
    <path style="opacity:1" fill="#c923cf" d="M 264.5,102.5 C 265.376,102.369 266.043,102.702 266.5,103.5C 256.833,122.833 247.167,142.167 237.5,161.5C 233.833,162.833 230.167,162.833 226.5,161.5C 226.137,160.817 225.804,160.15 225.5,159.5C 228.898,159.82 232.232,159.487 235.5,158.5C 237.658,155.852 238.992,152.852 239.5,149.5C 245.207,140.752 249.874,131.419 253.5,121.5C 256.978,115.074 260.645,108.74 264.5,102.5 Z" />
  </g>
  <g>
    <path style="opacity:1" fill="#2febec" d="M 715.5,100.5 C 707.16,108.84 698.493,116.84 689.5,124.5C 687.915,123.998 687.415,122.998 688,121.5C 696.5,113.667 705,105.833 713.5,98C 717.833,97.3333 722.167,97.3333 726.5,98C 726.167,98.3333 725.833,98.6667 725.5,99C 721.975,99.1787 718.641,99.6787 715.5,100.5 Z" />
  </g>
  <g>
    <path style="opacity:1" fill="#24013c" d="M 510.5,101.5 C 510.5,101.833 510.5,102.167 510.5,102.5C 510.5,104.5 510.5,106.5 510.5,108.5C 496.5,108.5 482.5,108.5 468.5,108.5C 481.327,107.669 494.327,107.169 507.5,107C 507.88,104.674 508.88,102.841 510.5,101.5 Z" />
  </g>
  <g>
    <path style="opacity:1" fill="#d428d5" d="M 727.5,102.5 C 728.552,102.351 729.552,102.517 730.5,103C 721.557,112.111 712.557,120.945 703.5,129.5C 701.915,128.998 701.415,127.998 702,126.5C 710.041,117.957 718.541,109.957 727.5,102.5 Z" />
  </g>
  <g>
    <path style="opacity:1" fill="#c927d1" d="M 288.5,107.5 C 292.371,107.185 296.038,107.518 299.5,108.5C 291.57,107.77 285.07,110.436 280,116.5C 278.955,115.627 278.122,114.627 277.5,113.5C 280.712,110.726 284.379,108.726 288.5,107.5 Z" />
  </g>
  <g>
    <path style="opacity:1" fill="#792687" d="M 468.5,108.5 C 482.5,108.5 496.5,108.5 510.5,108.5C 496.677,109.496 482.677,109.829 468.5,109.5C 467.964,112.698 468.631,115.365 470.5,117.5C 470.5,119.167 470.5,120.833 470.5,122.5C 470.5,123.5 470.5,124.5 470.5,125.5C 469.5,125.5 468.5,125.5 467.5,125.5C 467.803,120.57 467.469,115.737 466.5,111C 467.066,110.005 467.733,109.172 468.5,108.5 Z" />
  </g>
  <g>
    <path style="opacity:1" fill="#bd30c3" d="M 510.5,102.5 C 512.369,104.635 513.036,107.302 512.5,110.5C 498.5,110.5 484.5,110.5 470.5,110.5C 470.5,112.833 470.5,115.167 470.5,117.5C 468.631,115.365 467.964,112.698 468.5,109.5C 482.677,109.829 496.677,109.496 510.5,108.5C 510.5,106.5 510.5,104.5 510.5,102.5 Z" />
  </g>
  <g>
    <path style="opacity:1" fill="#b639bf" d="M 577.5,109.5 C 579.966,110.298 581.966,111.631 583.5,113.5C 575.41,110.722 567.076,109.888 558.5,111C 554.108,112.219 551.774,115.052 551.5,119.5C 551.5,119.833 551.5,120.167 551.5,120.5C 550.883,120.389 550.383,120.056 550,119.5C 549.199,116.633 549.366,113.966 550.5,111.5C 554.822,109.173 559.488,107.84 564.5,107.5C 568.78,108.471 573.113,109.137 577.5,109.5 Z" />
  </g>
  <g>
    <path style="opacity:1" fill="#110f2a" d="M 443.5,104.5 C 444.167,104.5 444.833,104.5 445.5,104.5C 446.306,105.728 447.306,106.728 448.5,107.5C 446.05,109.629 444.383,112.296 443.5,115.5C 442.167,114.833 440.833,114.167 439.5,113.5C 437.566,110.942 434.899,109.609 431.5,109.5C 431.082,108.778 430.416,108.278 429.5,108C 424.648,107.185 419.981,107.352 415.5,108.5C 412.196,108.739 409.196,109.739 406.5,111.5C 406.414,110.504 406.748,109.671 407.5,109C 415.314,106.896 423.314,105.896 431.5,106C 433.441,105.696 435.107,104.863 436.5,103.5C 437.429,104.689 437.762,106.022 437.5,107.5C 439.288,107.785 440.955,107.452 442.5,106.5C 441.019,105.056 441.352,104.389 443.5,104.5 Z" />
  </g>
  <g>
    <path style="opacity:1" fill="#4f0367" d="M 415.5,108.5 C 419.981,107.352 424.648,107.185 429.5,108C 430.416,108.278 431.082,108.778 431.5,109.5C 426.203,108.725 420.87,108.392 415.5,108.5 Z" />
  </g>
  <g>
    <path style="opacity:1" fill="#d72fd9" d="M 592.5,107.5 C 593.289,107.783 593.956,108.283 594.5,109C 592.673,111.242 591.006,113.575 589.5,116C 588.563,116.692 587.897,116.525 587.5,115.5C 588.383,112.296 590.05,109.629 592.5,107.5 Z" />
  </g>
  <g>
    <path style="opacity:1" fill="#c1c1c2" d="M 56.5,111.5 C 62.9041,112.966 66.5708,116.966 67.5,123.5C 68.3423,135.142 63.3423,142.975 52.5,147C 44.5069,147.5 36.5069,147.666 28.5,147.5C 28.5,148.5 28.5,149.5 28.5,150.5C 27.8333,150.5 27.1667,150.5 26.5,150.5C 26.5,148.167 26.5,145.833 26.5,143.5C 27.1174,143.611 27.6174,143.944 28,144.5C 28.4999,133.172 28.6665,121.838 28.5,110.5C 37.8661,110.279 47.1994,110.613 56.5,111.5 Z" />
  </g>
  <g>
    <path style="opacity:1" fill="#081224" d="M 308.5,102.5 C 310.909,104.902 312.909,107.569 314.5,110.5C 315.386,117.652 312.719,122.985 306.5,126.5C 306.957,127.298 307.624,127.631 308.5,127.5C 311.52,129.523 313.854,132.19 315.5,135.5C 315.511,137.547 315.844,139.547 316.5,141.5C 316.297,143.208 315.464,144.541 314,145.5C 313.506,147.134 313.34,148.801 313.5,150.5C 312.448,150.351 311.448,150.517 310.5,151C 310.833,151.333 311.167,151.667 311.5,152C 310.252,153.4 309.252,154.9 308.5,156.5C 306.287,157.773 303.954,158.773 301.5,159.5C 294.833,159.5 288.167,159.5 281.5,159.5C 276.988,157.503 273.155,154.503 270,150.5C 269.517,149.552 269.351,148.552 269.5,147.5C 270.833,145.5 272.167,143.5 273.5,141.5C 274.939,143.36 276.605,145.027 278.5,146.5C 288.006,153.496 297.173,153.163 306,145.5C 307.542,143.435 307.709,141.435 306.5,139.5C 305.254,136.357 302.92,134.357 299.5,133.5C 298.848,132.275 297.681,131.608 296,131.5C 293.183,130.969 290.35,130.636 287.5,130.5C 285.952,130.179 285.285,129.179 285.5,127.5C 285.5,126.167 285.5,124.833 285.5,123.5C 292.149,123.678 297.982,121.678 303,117.5C 303.789,115.288 303.622,113.288 302.5,111.5C 302.167,110.833 301.833,110.167 301.5,109.5C 301.586,108.504 301.252,107.671 300.5,107C 296.311,106.188 292.311,106.355 288.5,107.5C 284.379,108.726 280.712,110.726 277.5,113.5C 275.5,112.167 273.833,110.5 272.5,108.5C 283.017,97.6234 295.017,95.6234 308.5,102.5 Z" />
  </g>
  <g>
    <path style="opacity:1" fill="#580f66" d="M 288.5,107.5 C 292.311,106.355 296.311,106.188 300.5,107C 301.252,107.671 301.586,108.504 301.5,109.5C 300.833,109.167 300.167,108.833 299.5,108.5C 296.038,107.518 292.371,107.185 288.5,107.5 Z" />
  </g>
  <g>
    <path style="opacity:1" fill="#021221" d="M 373.5,103.5 C 374.167,104.5 374.833,105.5 375.5,106.5C 374.903,106.735 374.57,107.235 374.5,108C 375.079,109.914 376.079,111.581 377.5,113C 377.167,113.5 376.833,114 376.5,114.5C 373.415,112.427 370.582,110.094 368,107.5C 366.132,108.672 364.298,108.505 362.5,107C 354.5,106.333 346.5,106.333 338.5,107C 337.263,107.232 336.263,107.732 335.5,108.5C 335.5,114.833 335.5,121.167 335.5,127.5C 336.791,127.737 337.791,127.404 338.5,126.5C 338.833,126.5 339.167,126.5 339.5,126.5C 347.507,126.666 355.507,126.5 363.5,126C 369.627,123.117 370.96,118.951 367.5,113.5C 367.5,113.167 367.5,112.833 367.5,112.5C 367.56,111.957 367.893,111.624 368.5,111.5C 369.524,112.853 370.857,113.52 372.5,113.5C 374.121,116.379 375.121,119.546 375.5,123C 376.334,127.043 375,128.71 371.5,128C 373.912,130.035 373.245,131.035 369.5,131C 369.833,131.333 370.167,131.667 370.5,132C 358.772,133.856 347.105,135.023 335.5,135.5C 335.5,143.5 335.5,151.5 335.5,159.5C 333.167,159.5 330.833,159.5 328.5,159.5C 326.952,159.179 326.285,158.179 326.5,156.5C 326.5,137.833 326.5,119.167 326.5,100.5C 340.171,100.333 353.837,100.5 367.5,101C 369.407,102.122 371.407,102.955 373.5,103.5 Z" />
  </g>
  <g>
    <path style="opacity:1" fill="#bc38c3" d="M 363.5,109.5 C 364.833,109.5 365.5,110.167 365.5,111.5C 356.553,110.556 347.553,110.222 338.5,110.5C 338.5,113.833 338.5,117.167 338.5,120.5C 337.833,120.5 337.167,120.5 336.5,120.5C 336.5,116.833 336.5,113.167 336.5,109.5C 345.5,109.5 354.5,109.5 363.5,109.5 Z" />
  </g>
  <g>
    <path style="opacity:1" fill="#c3c0c3" d="M 365.5,111.5 C 366.167,111.833 366.833,112.167 367.5,112.5C 367.5,112.833 367.5,113.167 367.5,113.5C 367.655,118.023 365.655,121.189 361.5,123C 354.174,123.5 346.841,123.666 339.5,123.5C 338.596,122.791 338.263,121.791 338.5,120.5C 338.5,117.167 338.5,113.833 338.5,110.5C 347.553,110.222 356.553,110.556 365.5,111.5 Z" />
  </g>
  <g>
    <path style="opacity:1" fill="#c62acc" d="M 136.5,108.5 C 141.939,107.982 146.939,108.982 151.5,111.5C 136.785,107.608 126.618,112.608 121,126.5C 120.371,130.871 120.537,135.204 121.5,139.5C 115.445,123.942 120.445,113.608 136.5,108.5 Z" />
  </g>
  <g>
    <path style="opacity:1" fill="#1e0f37" d="M 136.5,108.5 C 144.608,106.589 151.941,108.256 158.5,113.5C 161.212,111.74 164.212,111.073 167.5,111.5C 165.806,113.861 163.806,115.861 161.5,117.5C 158.403,115.063 155.07,113.063 151.5,111.5C 146.939,108.982 141.939,107.982 136.5,108.5 Z" />
  </g>
  <g>
    <path style="opacity:1" fill="#d136d0" d="M 167.5,111.5 C 167.833,111.5 168.167,111.5 168.5,111.5C 169.289,111.783 169.956,112.283 170.5,113C 168.017,115.406 165.35,117.573 162.5,119.5C 161.702,119.043 161.369,118.376 161.5,117.5C 163.806,115.861 165.806,113.861 167.5,111.5 Z" />
  </g>
  <g>
    <path style="opacity:1" fill="#100b2a" d="M 375.5,106.5 C 377.587,107.585 378.92,109.251 379.5,111.5C 381.265,122.639 377.265,130.639 367.5,135.5C 363.917,135.232 360.584,135.899 357.5,137.5C 357.167,137.5 356.833,137.5 356.5,137.5C 349.913,135.539 342.913,134.872 335.5,135.5C 347.105,135.023 358.772,133.856 370.5,132C 370.167,131.667 369.833,131.333 369.5,131C 373.245,131.035 373.912,130.035 371.5,128C 375,128.71 376.334,127.043 375.5,123C 375.121,119.546 374.121,116.379 372.5,113.5C 370.857,113.52 369.524,112.853 368.5,111.5C 367.893,111.624 367.56,111.957 367.5,112.5C 366.833,112.167 366.167,111.833 365.5,111.5C 365.5,110.167 364.833,109.5 363.5,109.5C 354.348,108.506 345.015,108.173 335.5,108.5C 336.263,107.732 337.263,107.232 338.5,107C 346.5,106.333 354.5,106.333 362.5,107C 364.298,108.505 366.132,108.672 368,107.5C 370.582,110.094 373.415,112.427 376.5,114.5C 376.833,114 377.167,113.5 377.5,113C 376.079,111.581 375.079,109.914 374.5,108C 374.57,107.235 374.903,106.735 375.5,106.5 Z" />
  </g>
  <g>
    <path style="opacity:1" fill="#051423" d="M 443.5,104.5 C 441.352,104.389 441.019,105.056 442.5,106.5C 440.955,107.452 439.288,107.785 437.5,107.5C 437.762,106.022 437.429,104.689 436.5,103.5C 435.107,104.863 433.441,105.696 431.5,106C 423.314,105.896 415.314,106.896 407.5,109C 406.748,109.671 406.414,110.504 406.5,111.5C 405.366,113.966 405.199,116.633 406,119.5C 406.383,120.056 406.883,120.389 407.5,120.5C 408.975,122.41 410.975,123.576 413.5,124C 423.513,124.754 433.179,126.921 442.5,130.5C 444.167,132.5 445.833,134.5 447.5,136.5C 447.5,140.5 447.5,144.5 447.5,148.5C 447.256,151.263 445.923,153.429 443.5,155C 439.776,157.406 435.776,158.906 431.5,159.5C 429.167,159.5 426.833,159.5 424.5,159.5C 421.5,159.5 418.5,159.5 415.5,159.5C 415.5,157.5 415.5,155.5 415.5,153.5C 410.107,154.614 405.774,153.114 402.5,149C 401.552,148.517 400.552,148.351 399.5,148.5C 399.238,149.978 399.571,151.311 400.5,152.5C 402.225,153.015 403.892,153.682 405.5,154.5C 402.07,155.009 398.737,155.343 395.5,155.5C 393.833,154.5 392.5,153.167 391.5,151.5C 393.255,149.012 395.255,146.678 397.5,144.5C 409.01,151.977 421.343,153.477 434.5,149C 437.041,147.152 438.041,144.652 437.5,141.5C 437.167,140.833 436.833,140.167 436.5,139.5C 436.489,137.983 435.823,136.816 434.5,136C 435.747,134.506 435.747,133.006 434.5,131.5C 433.833,132.833 433.167,134.167 432.5,135.5C 428.231,134.462 423.898,133.795 419.5,133.5C 412.955,131.291 406.289,129.291 399.5,127.5C 397.11,125.733 395.443,123.4 394.5,120.5C 393.22,113.165 395.553,107.331 401.5,103C 415.792,96.7143 429.792,97.2143 443.5,104.5 Z" />
  </g>
  <g>
    <path style="opacity:1" fill="#d62ed8" d="M 448.5,107.5 C 449.289,107.783 449.956,108.283 450.5,109C 448.673,111.242 447.006,113.575 445.5,116C 444.563,116.692 443.897,116.525 443.5,115.5C 444.383,112.296 446.05,109.629 448.5,107.5 Z" />
  </g>
  <g>
    <path style="opacity:1" fill="#611570" d="M 335.5,108.5 C 345.015,108.173 354.348,108.506 363.5,109.5C 354.5,109.5 345.5,109.5 336.5,109.5C 336.5,113.167 336.5,116.833 336.5,120.5C 336.025,123.082 336.692,125.082 338.5,126.5C 337.791,127.404 336.791,127.737 335.5,127.5C 335.5,121.167 335.5,114.833 335.5,108.5 Z" />
  </g>
  <g>
    <path style="opacity:1" fill="#47ccd0" d="M 682.5,100.5 C 679.833,100.5 677.167,100.5 674.5,100.5C 674.5,119.167 674.5,137.833 674.5,156.5C 673.25,156.423 672.417,155.756 672,154.5C 671.5,135.503 671.333,116.503 671.5,97.5C 675.167,97.5 678.833,97.5 682.5,97.5C 682.5,98.5 682.5,99.5 682.5,100.5 Z" />
  </g>
  <g>
    <path style="opacity:1" fill="#c039cb" d="M 415.5,108.5 C 420.87,108.392 426.203,108.725 431.5,109.5C 434.899,109.609 437.566,110.942 439.5,113.5C 431.41,110.722 423.076,109.888 414.5,111C 409.761,111.902 407.427,114.735 407.5,119.5C 407.5,119.833 407.5,120.167 407.5,120.5C 406.883,120.389 406.383,120.056 406,119.5C 405.199,116.633 405.366,113.966 406.5,111.5C 409.196,109.739 412.196,108.739 415.5,108.5 Z" />
  </g>
  <g>
    <path style="opacity:1" fill="#b93ec0" d="M 53.5,109.5 C 55.0269,109.427 56.0269,110.094 56.5,111.5C 47.1994,110.613 37.8661,110.279 28.5,110.5C 28.6665,121.838 28.4999,133.172 28,144.5C 27.6174,143.944 27.1174,143.611 26.5,143.5C 26.5,132.167 26.5,120.833 26.5,109.5C 35.5,109.5 44.5,109.5 53.5,109.5 Z" />
  </g>
  <g>
    <path style="opacity:1" fill="#2fe6ea" d="M 262.5,100.5 C 259.428,100.183 256.428,100.516 253.5,101.5C 246.122,116.255 238.789,130.922 231.5,145.5C 230.167,145.5 229.5,144.833 229.5,143.5C 236.55,128.399 243.883,113.399 251.5,98.5C 255.107,97.5108 258.774,97.1774 262.5,97.5C 262.5,98.5 262.5,99.5 262.5,100.5 Z" />
  </g>
  <g>
    <path style="opacity:1" fill="#2ce5e7" d="M 302.5,111.5 C 303.622,113.288 303.789,115.288 303,117.5C 297.982,121.678 292.149,123.678 285.5,123.5C 285.5,124.833 285.5,126.167 285.5,127.5C 283.656,125.721 282.99,123.388 283.5,120.5C 288.795,120.541 293.795,119.375 298.5,117C 300.439,115.568 301.772,113.735 302.5,111.5 Z" />
  </g>
  <g>
    <path style="opacity:1" fill="#4b085c" d="M 53.5,109.5 C 44.5,109.5 35.5,109.5 26.5,109.5C 26.5,120.833 26.5,132.167 26.5,143.5C 26.5,145.833 26.5,148.167 26.5,150.5C 25.5041,136.343 25.1707,122.01 25.5,107.5C 34.1731,107.334 42.8397,107.5 51.5,108C 52.4158,108.278 53.0825,108.778 53.5,109.5 Z" />
  </g>
  <g>
    <path style="opacity:1" fill="#cf31d0" d="M 314.5,110.5 C 317.954,117.952 315.954,123.619 308.5,127.5C 307.624,127.631 306.957,127.298 306.5,126.5C 312.719,122.985 315.386,117.652 314.5,110.5 Z" />
  </g>
  <g>
    <path style="opacity:1" fill="#2fdbdf" d="M 470.5,122.5 C 481.167,122.5 491.833,122.5 502.5,122.5C 502.5,123.5 502.5,124.5 502.5,125.5C 491.833,125.5 481.167,125.5 470.5,125.5C 470.5,124.5 470.5,123.5 470.5,122.5 Z" />
  </g>
  <g>
    <path style="opacity:1" fill="#ac89c5" d="M 336.5,120.5 C 337.167,120.5 337.833,120.5 338.5,120.5C 338.263,121.791 338.596,122.791 339.5,123.5C 339.5,124.5 339.5,125.5 339.5,126.5C 339.167,126.5 338.833,126.5 338.5,126.5C 336.692,125.082 336.025,123.082 336.5,120.5 Z" />
  </g>
  <g>
    <path style="opacity:1" fill="#28d6d9" d="M 166.5,127.5 C 158.833,127.5 151.167,127.5 143.5,127.5C 143.5,128.833 143.5,130.167 143.5,131.5C 142.883,131.389 142.383,131.056 142,130.5C 141.505,128.527 141.338,126.527 141.5,124.5C 149.833,124.5 158.167,124.5 166.5,124.5C 166.5,125.5 166.5,126.5 166.5,127.5 Z" />
  </g>
  <g>
    <path style="opacity:1" fill="#32e8ec" d="M 367.5,113.5 C 370.96,118.951 369.627,123.117 363.5,126C 355.507,126.5 347.507,126.666 339.5,126.5C 339.5,125.5 339.5,124.5 339.5,123.5C 346.841,123.666 354.174,123.5 361.5,123C 365.655,121.189 367.655,118.023 367.5,113.5 Z" />
  </g>
  <g>
    <path style="opacity:1" fill="#41dde0" d="M 407.5,119.5 C 417.155,121.525 426.822,123.692 436.5,126C 439.014,126.881 441.014,128.381 442.5,130.5C 433.179,126.921 423.513,124.754 413.5,124C 410.975,123.576 408.975,122.41 407.5,120.5C 407.5,120.167 407.5,119.833 407.5,119.5 Z" />
  </g>
  <g>
    <path style="opacity:1" fill="#3fdde0" d="M 551.5,119.5 C 561.142,121.664 570.808,123.831 580.5,126C 583.106,126.792 585.106,128.292 586.5,130.5C 577.179,126.921 567.513,124.754 557.5,124C 554.975,123.576 552.975,122.41 551.5,120.5C 551.5,120.167 551.5,119.833 551.5,119.5 Z" />
  </g>
  <g>
    <path style="opacity:1" fill="#297f89" d="M 15.5,99.5 C 27.6783,99.1716 39.6783,99.5049 51.5,100.5C 39.8333,100.5 28.1667,100.5 16.5,100.5C 16.5,119.167 16.5,137.833 16.5,156.5C 15.503,137.674 15.1697,118.674 15.5,99.5 Z" />
  </g>
  <g>
    <path style="opacity:1" fill="#210b3b" d="M 661.5,114.5 C 662.674,115.514 663.34,116.847 663.5,118.5C 664.354,124.121 664.687,129.788 664.5,135.5C 664.482,138.736 663.482,141.403 661.5,143.5C 662.166,138.852 662.832,134.186 663.5,129.5C 662.587,124.528 661.92,119.528 661.5,114.5 Z" />
  </g>
  <g>
    <path style="opacity:1" fill="#6d207b" d="M 663.5,118.5 C 664.931,119.78 665.598,121.447 665.5,123.5C 665.817,127.702 665.483,131.702 664.5,135.5C 664.687,129.788 664.354,124.121 663.5,118.5 Z" />
  </g>
  <g>
    <path style="opacity:1" fill="#411557" d="M 75.5,114.5 C 77.951,117.74 79.6176,121.407 80.5,125.5C 79.6773,128.977 79.1773,132.644 79,136.5C 78.385,139.303 77.2183,141.636 75.5,143.5C 78.0236,133.857 78.0236,124.19 75.5,114.5 Z" />
  </g>
  <g>
    <path style="opacity:1" fill="#041222" d="M 508.5,100.5 C 509.492,100.328 510.158,100.662 510.5,101.5C 508.88,102.841 507.88,104.674 507.5,107C 494.327,107.169 481.327,107.669 468.5,108.5C 467.733,109.172 467.066,110.005 466.5,111C 467.469,115.737 467.803,120.57 467.5,125.5C 468.5,125.5 469.5,125.5 470.5,125.5C 481.167,125.5 491.833,125.5 502.5,125.5C 503.833,125.5 504.5,126.167 504.5,127.5C 503.549,128.919 503.216,130.585 503.5,132.5C 491.322,132.172 479.322,132.505 467.5,133.5C 467.178,139.358 467.511,145.025 468.5,150.5C 468.833,150.5 469.167,150.5 469.5,150.5C 470.167,150.5 470.833,150.5 471.5,150.5C 483.833,150.5 496.167,150.5 508.5,150.5C 509.778,150.782 510.778,151.449 511.5,152.5C 511.5,154.833 511.5,157.167 511.5,159.5C 494.5,159.5 477.5,159.5 460.5,159.5C 458.952,159.179 458.285,158.179 458.5,156.5C 458.5,137.833 458.5,119.167 458.5,100.5C 475.167,100.5 491.833,100.5 508.5,100.5 Z" />
  </g>
  <g>
    <path style="opacity:1" fill="#290945" d="M 543.5,127.5 C 554.126,130.814 564.793,133.481 575.5,135.5C 566.758,134.632 558.091,133.299 549.5,131.5C 547.147,130.66 545.147,129.326 543.5,127.5 Z" />
  </g>
  <g>
    <path style="opacity:1" fill="#051123" d="M 682.5,100.5 C 683.492,100.328 684.158,100.662 684.5,101.5C 682.527,110.775 681.86,120.442 682.5,130.5C 685.034,130.741 686.7,129.741 687.5,127.5C 687.5,127.167 687.5,126.833 687.5,126.5C 688.5,126.167 689.167,125.5 689.5,124.5C 698.493,116.84 707.16,108.84 715.5,100.5C 719.846,100.334 724.179,100.501 728.5,101C 727.944,101.383 727.611,101.883 727.5,102.5C 718.541,109.957 710.041,117.957 702,126.5C 701.415,127.998 701.915,128.998 703.5,129.5C 713.833,139.5 724.167,149.5 734.5,159.5C 730.167,159.5 725.833,159.5 721.5,159.5C 713.177,151.356 704.511,143.689 695.5,136.5C 695.631,135.624 695.298,134.957 694.5,134.5C 691.22,136.62 688.22,138.954 685.5,141.5C 683.547,147.074 682.88,153.074 683.5,159.5C 681.167,159.5 678.833,159.5 676.5,159.5C 674.952,159.179 674.285,158.179 674.5,156.5C 674.5,137.833 674.5,119.167 674.5,100.5C 677.167,100.5 679.833,100.5 682.5,100.5 Z" />
  </g>
  <g>
    <path style="opacity:1" fill="#2a0943" d="M 684.5,101.5 C 684.5,101.833 684.5,102.167 684.5,102.5C 684.5,110.833 684.5,119.167 684.5,127.5C 685.5,127.5 686.5,127.5 687.5,127.5C 686.7,129.741 685.034,130.741 682.5,130.5C 681.86,120.442 682.527,110.775 684.5,101.5 Z" />
  </g>
  <g>
    <path style="opacity:1" fill="#b047c2" d="M 684.5,102.5 C 686.154,110.281 687.154,118.281 687.5,126.5C 687.5,126.833 687.5,127.167 687.5,127.5C 686.5,127.5 685.5,127.5 684.5,127.5C 684.5,119.167 684.5,110.833 684.5,102.5 Z" />
  </g>
  <g>
    <path style="opacity:1" fill="#250842" d="M 399.5,127.5 C 406.289,129.291 412.955,131.291 419.5,133.5C 414.784,133.154 410.117,132.487 405.5,131.5C 403.147,130.66 401.147,129.326 399.5,127.5 Z" />
  </g>
  <g>
    <path style="opacity:1" fill="#44c9cf" d="M 508.5,100.5 C 491.833,100.5 475.167,100.5 458.5,100.5C 458.5,119.167 458.5,137.833 458.5,156.5C 456.725,152.614 455.892,148.28 456,143.5C 455.5,128.17 455.333,112.837 455.5,97.5C 473.167,97.5 490.833,97.5 508.5,97.5C 508.5,98.5 508.5,99.5 508.5,100.5 Z" />
  </g>
  <g>
    <path style="opacity:1" fill="#ac3cb5" d="M 287.5,130.5 C 290.35,130.636 293.183,130.969 296,131.5C 297.681,131.608 298.848,132.275 299.5,133.5C 295.017,133.468 291.017,132.468 287.5,130.5 Z" />
  </g>
  <g>
    <path style="opacity:1" fill="#a436ae" d="M 405.5,131.5 C 410.117,132.487 414.784,133.154 419.5,133.5C 423.582,134.623 427.582,135.956 431.5,137.5C 422.397,136.883 413.73,134.883 405.5,131.5 Z" />
  </g>
  <g>
    <path style="opacity:1" fill="#041222" d="M 652.5,104.5 C 656.183,107.185 659.183,110.518 661.5,114.5C 661.92,119.528 662.587,124.528 663.5,129.5C 662.832,134.186 662.166,138.852 661.5,143.5C 659.853,146.473 657.853,149.14 655.5,151.5C 649.6,154.737 643.267,156.903 636.5,158C 635.944,158.383 635.611,158.883 635.5,159.5C 625.167,159.5 614.833,159.5 604.5,159.5C 602.952,159.179 602.285,158.179 602.5,156.5C 602.5,137.833 602.5,119.167 602.5,100.5C 615.504,100.333 628.504,100.5 641.5,101C 645.288,101.874 648.954,103.041 652.5,104.5 Z" />
  </g>
  <g>
    <path style="opacity:1" fill="#b43cbe" d="M 639.5,109.5 C 642.899,109.609 645.566,110.942 647.5,113.5C 644.338,112.137 641.004,111.303 637.5,111C 629.841,110.5 622.174,110.334 614.5,110.5C 614.5,122.833 614.5,135.167 614.5,147.5C 614.5,148.5 614.5,149.5 614.5,150.5C 613.508,150.672 612.842,150.338 612.5,149.5C 612.5,136.167 612.5,122.833 612.5,109.5C 621.5,109.5 630.5,109.5 639.5,109.5 Z" />
  </g>
  <g>
    <path style="opacity:1" fill="#530766" d="M 639.5,108.5 C 639.5,108.833 639.5,109.167 639.5,109.5C 630.5,109.5 621.5,109.5 612.5,109.5C 612.5,122.833 612.5,136.167 612.5,149.5C 611.799,136.295 611.132,122.962 610.5,109.5C 620.084,108.527 629.75,108.194 639.5,108.5 Z" />
  </g>
  <g>
    <path style="opacity:1" fill="#c2c1c2" d="M 647.5,113.5 C 649.95,115.629 651.617,118.296 652.5,121.5C 654.252,134.157 649.252,142.657 637.5,147C 629.841,147.5 622.174,147.666 614.5,147.5C 614.5,135.167 614.5,122.833 614.5,110.5C 622.174,110.334 629.841,110.5 637.5,111C 641.004,111.303 644.338,112.137 647.5,113.5 Z" />
  </g>
  <g>
    <path style="opacity:1" fill="#10092c" d="M 639.5,108.5 C 629.75,108.194 620.084,108.527 610.5,109.5C 612.059,106.512 611.059,104.679 607.5,104C 610.534,100.564 612.534,101.231 613.5,106C 622.397,106.038 631.064,106.871 639.5,108.5 Z" />
  </g>
  <g>
    <path style="opacity:1" fill="#25053e" d="M 253.5,121.5 C 249.874,131.419 245.207,140.752 239.5,149.5C 243.6,139.854 248.267,130.521 253.5,121.5 Z" />
  </g>
  <g>
    <path style="opacity:1" fill="#c22cc8" d="M 379.5,111.5 C 383.791,119.231 382.791,126.398 376.5,133C 374.102,134.524 371.769,136.024 369.5,137.5C 368.5,137.167 367.833,136.5 367.5,135.5C 377.265,130.639 381.265,122.639 379.5,111.5 Z" />
  </g>
  <g>
    <path style="opacity:1" fill="#1a0137" d="M 504.5,127.5 C 504.5,129.5 504.5,131.5 504.5,133.5C 492.167,133.5 479.833,133.5 467.5,133.5C 479.322,132.505 491.322,132.172 503.5,132.5C 503.216,130.585 503.549,128.919 504.5,127.5 Z" />
  </g>
  <g>
    <path style="opacity:1" fill="#690879" d="M 467.5,133.5 C 479.833,133.5 492.167,133.5 504.5,133.5C 492.678,134.495 480.678,134.828 468.5,134.5C 468.5,139.833 468.5,145.167 468.5,150.5C 467.511,145.025 467.178,139.358 467.5,133.5 Z" />
  </g>
  <g>
    <path style="opacity:1" fill="#22123f" d="M 436.5,139.5 C 434.597,139.204 432.93,138.537 431.5,137.5C 427.582,135.956 423.582,134.623 419.5,133.5C 423.898,133.795 428.231,134.462 432.5,135.5C 433.167,134.167 433.833,132.833 434.5,131.5C 435.747,133.006 435.747,134.506 434.5,136C 435.823,136.816 436.489,137.983 436.5,139.5 Z" />
  </g>
  <g>
    <path style="opacity:1" fill="#be49c4" d="M 504.5,127.5 C 505.748,128.334 506.415,129.667 506.5,131.5C 506.449,133.1 506.116,134.6 505.5,136C 493.829,136.389 482.162,136.222 470.5,135.5C 470.387,140.518 470.053,145.518 469.5,150.5C 469.167,150.5 468.833,150.5 468.5,150.5C 468.5,145.167 468.5,139.833 468.5,134.5C 480.678,134.828 492.678,134.495 504.5,133.5C 504.5,131.5 504.5,129.5 504.5,127.5 Z" />
  </g>
  <g>
    <path style="opacity:1" fill="#2ccacb" d="M 97.5,100.5 C 94.8333,100.5 92.1667,100.5 89.5,100.5C 89.5,119.167 89.5,137.833 89.5,156.5C 87.5122,137.195 86.8455,117.528 87.5,97.5C 90.8333,97.5 94.1667,97.5 97.5,97.5C 97.5,98.5 97.5,99.5 97.5,100.5 Z" />
  </g>
  <g>
    <path style="opacity:1" fill="#dd25df" d="M 187.5,102.5 C 189.488,121.805 190.154,141.472 189.5,161.5C 185.671,162.069 182.337,161.402 179.5,159.5C 182.167,159.5 184.833,159.5 187.5,159.5C 187.5,140.5 187.5,121.5 187.5,102.5 Z" />
  </g>
  <g>
    <path style="opacity:1" fill="#a636b1" d="M 549.5,131.5 C 558.091,133.299 566.758,134.632 575.5,135.5C 575.5,136.167 575.5,136.833 575.5,137.5C 566.409,136.771 557.742,134.771 549.5,131.5 Z" />
  </g>
  <g>
    <path style="opacity:1" fill="#051222" d="M 205.5,100.5 C 208.294,103.757 210.294,107.423 211.5,111.5C 211.523,113.927 212.023,116.26 213,118.5C 218.645,127.783 223.811,137.449 228.5,147.5C 230.62,148.872 231.62,148.205 231.5,145.5C 238.789,130.922 246.122,116.255 253.5,101.5C 256.428,100.516 259.428,100.183 262.5,100.5C 263.833,100.5 264.5,101.167 264.5,102.5C 260.645,108.74 256.978,115.074 253.5,121.5C 248.267,130.521 243.6,139.854 239.5,149.5C 238.992,152.852 237.658,155.852 235.5,158.5C 232.232,159.487 228.898,159.82 225.5,159.5C 215.006,140.515 205.006,121.182 195.5,101.5C 198.625,100.521 201.958,100.187 205.5,100.5 Z" />
  </g>
  <g>
    <path style="opacity:1" fill="#4a1d5f" d="M 211.5,111.5 C 217.5,122.167 223.5,132.833 229.5,143.5C 229.5,144.833 230.167,145.5 231.5,145.5C 231.62,148.205 230.62,148.872 228.5,147.5C 223.811,137.449 218.645,127.783 213,118.5C 212.023,116.26 211.523,113.927 211.5,111.5 Z" />
  </g>
  <g>
    <path style="opacity:1" fill="#a539ad" d="M 167.5,127.5 C 168.151,128.091 168.818,128.757 169.5,129.5C 170.499,140.146 170.832,150.813 170.5,161.5C 167.918,161.975 165.918,161.308 164.5,159.5C 165.5,159.5 166.5,159.5 167.5,159.5C 167.5,148.833 167.5,138.167 167.5,127.5 Z" />
  </g>
  <g>
    <path style="opacity:1" fill="#6d237d" d="M 447.5,136.5 C 449.047,137.768 450.047,139.435 450.5,141.5C 449.651,143.888 448.651,146.221 447.5,148.5C 447.5,144.5 447.5,140.5 447.5,136.5 Z" />
  </g>
  <g>
    <path style="opacity:1" fill="#060f23" d="M 97.5,100.5 C 98.8333,100.5 99.5,101.167 99.5,102.5C 99.5,121.5 99.5,140.5 99.5,159.5C 96.5,159.5 93.5,159.5 90.5,159.5C 89.596,158.791 89.2627,157.791 89.5,156.5C 89.5,137.833 89.5,119.167 89.5,100.5C 92.1667,100.5 94.8333,100.5 97.5,100.5 Z" />
  </g>
  <g>
    <path style="opacity:1" fill="#071123" d="M 163.5,105.5 C 165.167,107.5 166.833,109.5 168.5,111.5C 168.167,111.5 167.833,111.5 167.5,111.5C 164.212,111.073 161.212,111.74 158.5,113.5C 151.941,108.256 144.608,106.589 136.5,108.5C 120.445,113.608 115.445,123.942 121.5,139.5C 122.833,142.493 124.833,144.827 127.5,146.5C 128.975,148.41 130.975,149.576 133.5,150C 142.438,152.262 149.938,150.095 156,143.5C 157.202,141.323 157.702,138.989 157.5,136.5C 158.404,135.791 158.737,134.791 158.5,133.5C 153.5,133.5 148.5,133.5 143.5,133.5C 143.5,132.833 143.5,132.167 143.5,131.5C 143.5,130.167 143.5,128.833 143.5,127.5C 151.167,127.5 158.833,127.5 166.5,127.5C 166.833,127.5 167.167,127.5 167.5,127.5C 167.5,138.167 167.5,148.833 167.5,159.5C 166.5,159.5 165.5,159.5 164.5,159.5C 163.272,158.694 162.272,157.694 161.5,156.5C 161.53,155.503 161.03,154.836 160,154.5C 157.177,155.983 154.343,157.483 151.5,159C 149.866,159.494 148.199,159.66 146.5,159.5C 142.167,159.5 137.833,159.5 133.5,159.5C 131.833,159.5 130.167,159.5 128.5,159.5C 118.679,155.013 112.012,147.68 108.5,137.5C 105.9,127.573 107.733,118.573 114,110.5C 129.19,96.3584 145.69,94.6918 163.5,105.5 Z" />
  </g>
  <g>
    <path style="opacity:1" fill="#91369f" d="M 143.5,133.5 C 148.5,133.5 153.5,133.5 158.5,133.5C 158.737,134.791 158.404,135.791 157.5,136.5C 156.833,136.5 156.167,136.5 155.5,136.5C 152.102,136.82 148.768,136.487 145.5,135.5C 144.757,134.818 144.091,134.151 143.5,133.5 Z" />
  </g>
  <g>
    <path style="opacity:1" fill="#3aece7" d="M 273.5,141.5 C 272.167,143.5 270.833,145.5 269.5,147.5C 267.656,146.796 267.156,145.463 268,143.5C 268.941,141.939 270.108,140.605 271.5,139.5C 272.522,139.855 273.189,140.522 273.5,141.5 Z" />
  </g>
  <g>
    <path style="opacity:1" fill="#3be7ec" d="M 155.5,136.5 C 156.167,136.5 156.833,136.5 157.5,136.5C 157.702,138.989 157.202,141.323 156,143.5C 149.938,150.095 142.438,152.262 133.5,150C 130.975,149.576 128.975,148.41 127.5,146.5C 127.435,146.062 127.601,145.728 128,145.5C 133.649,147.488 139.482,147.988 145.5,147C 150.748,145.254 154.081,141.754 155.5,136.5 Z" />
  </g>
  <g>
    <path style="opacity:1" fill="#240e3e" d="M 315.5,135.5 C 316.906,135.973 317.573,136.973 317.5,138.5C 318.187,146.461 315.187,152.461 308.5,156.5C 309.252,154.9 310.252,153.4 311.5,152C 311.167,151.667 310.833,151.333 310.5,151C 311.448,150.517 312.448,150.351 313.5,150.5C 313.34,148.801 313.506,147.134 314,145.5C 315.464,144.541 316.297,143.208 316.5,141.5C 315.844,139.547 315.511,137.547 315.5,135.5 Z" />
  </g>
  <g>
    <path style="opacity:1" fill="#20cdd2" d="M 185.5,100.5 C 182.833,100.5 180.167,100.5 177.5,100.5C 177.5,119.167 177.5,137.833 177.5,156.5C 175.512,137.195 174.846,117.528 175.5,97.5C 178.833,97.5 182.167,97.5 185.5,97.5C 185.5,98.5 185.5,99.5 185.5,100.5 Z" />
  </g>
  <g>
    <path style="opacity:1" fill="#39e1e6" d="M 67.5,123.5 C 70.0338,132.643 67.7004,140.477 60.5,147C 58.2827,148.275 55.9494,149.275 53.5,150C 45.1733,150.5 36.84,150.666 28.5,150.5C 28.5,149.5 28.5,148.5 28.5,147.5C 36.5069,147.666 44.5069,147.5 52.5,147C 63.3423,142.975 68.3423,135.142 67.5,123.5 Z" />
  </g>
  <g>
    <path style="opacity:1" fill="#912b9b" d="M 591.5,136.5 C 592.966,137.347 593.8,138.68 594,140.5C 594.808,144.027 594.641,147.36 593.5,150.5C 593.869,148.007 593.203,147.34 591.5,148.5C 591.5,144.5 591.5,140.5 591.5,136.5 Z" />
  </g>
  <g>
    <path style="opacity:1" fill="#35e6eb" d="M 652.5,121.5 C 655.97,131.129 653.97,139.629 646.5,147C 644.283,148.275 641.949,149.275 639.5,150C 631.173,150.5 622.84,150.666 614.5,150.5C 614.5,149.5 614.5,148.5 614.5,147.5C 622.174,147.666 629.841,147.5 637.5,147C 649.252,142.657 654.252,134.157 652.5,121.5 Z" />
  </g>
  <g>
    <path style="opacity:1" fill="#b32fb8" d="M 335.5,135.5 C 342.913,134.872 349.913,135.539 356.5,137.5C 350.5,137.5 344.5,137.5 338.5,137.5C 338.5,145.5 338.5,153.5 338.5,161.5C 334.671,162.069 331.337,161.402 328.5,159.5C 330.833,159.5 333.167,159.5 335.5,159.5C 335.5,151.5 335.5,143.5 335.5,135.5 Z" />
  </g>
  <g>
    <path style="opacity:1" fill="#36e8ea" d="M 580.5,140.5 C 582.27,146.297 579.937,149.797 573.5,151C 561.816,153.273 551.149,151.107 541.5,144.5C 539.255,146.678 537.255,149.012 535.5,151.5C 535.047,150.542 534.381,149.708 533.5,149C 535.15,146.187 537.15,143.687 539.5,141.5C 550.639,148.524 562.639,150.357 575.5,147C 577.765,145.242 579.432,143.075 580.5,140.5 Z" />
  </g>
  <g>
    <path style="opacity:1" fill="#47015c" d="M 685.5,141.5 C 684.872,147.601 684.205,153.601 683.5,159.5C 682.88,153.074 683.547,147.074 685.5,141.5 Z" />
  </g>
  <g>
    <path style="opacity:1" fill="#2ddedf" d="M 306.5,139.5 C 307.709,141.435 307.542,143.435 306,145.5C 297.173,153.163 288.006,153.496 278.5,146.5C 278.56,145.957 278.893,145.624 279.5,145.5C 290.306,150.869 299.306,148.869 306.5,139.5 Z" />
  </g>
  <g>
    <path style="opacity:1" fill="#33e9eb" d="M 437.5,141.5 C 438.041,144.652 437.041,147.152 434.5,149C 421.343,153.477 409.01,151.977 397.5,144.5C 395.255,146.678 393.255,149.012 391.5,151.5C 391.047,150.542 390.381,149.708 389.5,149C 391.15,146.187 393.15,143.687 395.5,141.5C 406.622,148.524 418.622,150.357 431.5,147C 433.416,144.91 435.416,143.077 437.5,141.5 Z" />
  </g>
  <g>
    <path style="opacity:1" fill="#3aeaed" d="M 508.5,150.5 C 496.167,150.5 483.833,150.5 471.5,150.5C 471.5,149.5 471.5,148.5 471.5,147.5C 483.833,147.5 496.167,147.5 508.5,147.5C 508.5,148.5 508.5,149.5 508.5,150.5 Z" />
  </g>
  <g>
    <path style="opacity:1" fill="#071024" d="M 367.5,135.5 C 367.833,136.5 368.5,137.167 369.5,137.5C 375.167,144.833 380.833,152.167 386.5,159.5C 382.5,159.5 378.5,159.5 374.5,159.5C 368.361,152.567 362.694,145.233 357.5,137.5C 360.584,135.899 363.917,135.232 367.5,135.5 Z" />
  </g>
  <g>
    <path style="opacity:1" fill="#c62ecc" d="M 695.5,136.5 C 686.884,142.51 683.884,150.844 686.5,161.5C 682.671,162.069 679.337,161.402 676.5,159.5C 678.833,159.5 681.167,159.5 683.5,159.5C 684.205,153.601 684.872,147.601 685.5,141.5C 688.22,138.954 691.22,136.62 694.5,134.5C 695.298,134.957 695.631,135.624 695.5,136.5 Z" />
  </g>
  <g>
    <path style="opacity:1" fill="#3a0350" d="M 591.5,150.5 C 589.177,154.324 585.844,156.657 581.5,157.5C 584.825,155.169 588.158,152.836 591.5,150.5 Z" />
  </g>
  <g>
    <path style="opacity:1" fill="#0d0e26" d="M 424.5,159.5 C 419.653,160.619 414.653,160.619 409.5,159.5C 406.031,159.453 402.698,158.787 399.5,157.5C 397.847,157.34 396.514,156.674 395.5,155.5C 398.737,155.343 402.07,155.009 405.5,154.5C 403.892,153.682 402.225,153.015 400.5,152.5C 399.571,151.311 399.238,149.978 399.5,148.5C 400.552,148.351 401.552,148.517 402.5,149C 405.774,153.114 410.107,154.614 415.5,153.5C 415.5,155.5 415.5,157.5 415.5,159.5C 418.5,159.5 421.5,159.5 424.5,159.5 Z" />
  </g>
  <g>
    <path style="opacity:1" fill="#d827db" d="M 80.5,125.5 C 82.5762,137.674 78.9095,147.84 69.5,156C 59.2449,160.907 48.4116,162.74 37,161.5C 30.462,161.496 24.2953,160.83 18.5,159.5C 29.1667,159.5 39.8333,159.5 50.5,159.5C 57.9019,159.083 64.2352,156.416 69.5,151.5C 71.9722,149.238 73.9722,146.572 75.5,143.5C 77.2183,141.636 78.385,139.303 79,136.5C 79.1773,132.644 79.6773,128.977 80.5,125.5 Z" />
  </g>
  <g>
    <path style="opacity:1" fill="#051222" d="M 589.5,104.5 C 590.306,105.728 591.306,106.728 592.5,107.5C 590.05,109.629 588.383,112.296 587.5,115.5C 586.167,114.833 584.833,114.167 583.5,113.5C 581.966,111.631 579.966,110.298 577.5,109.5C 568.95,105.773 560.284,105.606 551.5,109C 550.748,109.671 550.414,110.504 550.5,111.5C 549.366,113.966 549.199,116.633 550,119.5C 550.383,120.056 550.883,120.389 551.5,120.5C 552.975,122.41 554.975,123.576 557.5,124C 567.513,124.754 577.179,126.921 586.5,130.5C 588.167,132.5 589.833,134.5 591.5,136.5C 591.5,140.5 591.5,144.5 591.5,148.5C 591.5,149.167 591.5,149.833 591.5,150.5C 588.158,152.836 584.825,155.169 581.5,157.5C 580.01,159.28 578.01,159.946 575.5,159.5C 568.178,160.615 560.845,160.615 553.5,159.5C 550.031,159.453 546.698,158.787 543.5,157.5C 540.109,156.471 537.443,154.471 535.5,151.5C 537.255,149.012 539.255,146.678 541.5,144.5C 551.149,151.107 561.816,153.273 573.5,151C 579.937,149.797 582.27,146.297 580.5,140.5C 579.087,139.065 577.42,138.065 575.5,137.5C 575.5,136.833 575.5,136.167 575.5,135.5C 564.793,133.481 554.126,130.814 543.5,127.5C 541.11,125.733 539.443,123.4 538.5,120.5C 537.274,110.212 541.607,103.379 551.5,100C 564.721,97.041 577.387,98.541 589.5,104.5 Z" />
  </g>
  <g>
    <path style="opacity:1" fill="#22063c" d="M 577.5,109.5 C 573.113,109.137 568.78,108.471 564.5,107.5C 559.488,107.84 554.822,109.173 550.5,111.5C 550.414,110.504 550.748,109.671 551.5,109C 560.284,105.606 568.95,105.773 577.5,109.5 Z" />
  </g>
  <g>
    <path style="opacity:1" fill="#d52cda" d="M 317.5,138.5 C 320.853,147.018 318.519,153.851 310.5,159C 307.647,160.43 304.647,161.263 301.5,161.5C 301.5,160.833 301.5,160.167 301.5,159.5C 303.954,158.773 306.287,157.773 308.5,156.5C 315.187,152.461 318.187,146.461 317.5,138.5 Z" />
  </g>
  <g>
    <path style="opacity:1" fill="#20093e" d="M 655.5,151.5 C 653.422,154.051 650.756,155.884 647.5,157C 643.506,157.945 639.506,158.778 635.5,159.5C 635.611,158.883 635.944,158.383 636.5,158C 643.267,156.903 649.6,154.737 655.5,151.5 Z" />
  </g>
  <g>
    <path style="opacity:1" fill="#23083d" d="M 69.5,151.5 C 64.2352,156.416 57.9019,159.083 50.5,159.5C 53.3428,157.599 56.6762,156.433 60.5,156C 62.4324,154.648 63.7657,152.815 64.5,150.5C 65.1667,151.167 65.8333,151.833 66.5,152.5C 67.4168,151.873 68.4168,151.539 69.5,151.5 Z" />
  </g>
  <g>
    <path style="opacity:1" fill="#d227d5" d="M 665.5,123.5 C 668.934,136.231 665.601,147.064 655.5,156C 645.245,160.907 634.412,162.74 623,161.5C 616.462,161.496 610.295,160.83 604.5,159.5C 614.833,159.5 625.167,159.5 635.5,159.5C 639.506,158.778 643.506,157.945 647.5,157C 650.756,155.884 653.422,154.051 655.5,151.5C 657.853,149.14 659.853,146.473 661.5,143.5C 663.482,141.403 664.482,138.736 664.5,135.5C 665.483,131.702 665.817,127.702 665.5,123.5 Z" />
  </g>
  <g>
    <path style="opacity:1" fill="#c73fca" d="M 99.5,102.5 C 100.497,121.993 100.83,141.66 100.5,161.5C 96.6707,162.069 93.3373,161.402 90.5,159.5C 93.5,159.5 96.5,159.5 99.5,159.5C 99.5,140.5 99.5,121.5 99.5,102.5 Z" />
  </g>
  <g>
    <path style="opacity:1" fill="#dd26de" d="M 374.5,159.5 C 378.5,159.5 382.5,159.5 386.5,159.5C 387.289,159.783 387.956,160.283 388.5,161C 384.167,161.667 379.833,161.667 375.5,161C 374.944,160.617 374.611,160.117 374.5,159.5 Z" />
  </g>
  <g>
    <path style="opacity:1" fill="#e422e1" d="M 511.5,152.5 C 513.388,154.988 514.055,157.988 513.5,161.5C 495.468,162.153 477.802,161.486 460.5,159.5C 477.5,159.5 494.5,159.5 511.5,159.5C 511.5,157.167 511.5,154.833 511.5,152.5 Z" />
  </g>
  <g>
    <path style="opacity:1" fill="#e11fe4" d="M 721.5,159.5 C 725.833,159.5 730.167,159.5 734.5,159.5C 735.043,159.56 735.376,159.893 735.5,160.5C 731.205,161.661 726.871,161.828 722.5,161C 721.944,160.617 721.611,160.117 721.5,159.5 Z" />
  </g>
  <g>
    <path style="opacity:1" fill="#c53dcb" d="M 161.5,156.5 C 151.099,164.402 140.099,165.402 128.5,159.5C 130.167,159.5 131.833,159.5 133.5,159.5C 135.634,161.033 138.134,161.7 141,161.5C 143.295,161.453 145.129,160.787 146.5,159.5C 148.199,159.66 149.866,159.494 151.5,159C 154.343,157.483 157.177,155.983 160,154.5C 161.03,154.836 161.53,155.503 161.5,156.5 Z" />
  </g>
  <g>
    <path style="opacity:1" fill="#62126f" d="M 133.5,159.5 C 137.833,159.5 142.167,159.5 146.5,159.5C 145.129,160.787 143.295,161.453 141,161.5C 138.134,161.7 135.634,161.033 133.5,159.5 Z" />
  </g>
  <g>
    <path style="opacity:1" fill="#9f26a8" d="M 281.5,159.5 C 288.167,159.5 294.833,159.5 301.5,159.5C 301.5,160.167 301.5,160.833 301.5,161.5C 296.684,162.65 291.684,162.816 286.5,162C 284.509,161.626 282.842,160.793 281.5,159.5 Z" />
  </g>
  <g>
    <path style="opacity:1" fill="#cb37d0" d="M 450.5,141.5 C 451.222,150.938 447.222,157.438 438.5,161C 425.61,164.727 412.943,164.06 400.5,159C 399.944,158.617 399.611,158.117 399.5,157.5C 402.698,158.787 406.031,159.453 409.5,159.5C 409.918,160.222 410.584,160.722 411.5,161C 418.418,161.929 425.085,161.429 431.5,159.5C 435.776,158.906 439.776,157.406 443.5,155C 445.923,153.429 447.256,151.263 447.5,148.5C 448.651,146.221 449.651,143.888 450.5,141.5 Z" />
  </g>
  <g>
    <path style="opacity:1" fill="#500862" d="M 409.5,159.5 C 414.653,160.619 419.653,160.619 424.5,159.5C 426.833,159.5 429.167,159.5 431.5,159.5C 425.085,161.429 418.418,161.929 411.5,161C 410.584,160.722 409.918,160.222 409.5,159.5 Z" />
  </g>
  <g>
    <path style="opacity:1" fill="#cc33d2" d="M 593.5,150.5 C 592.476,154.362 590.143,157.195 586.5,159C 572.595,164.835 558.595,164.835 544.5,159C 543.944,158.617 543.611,158.117 543.5,157.5C 546.698,158.787 550.031,159.453 553.5,159.5C 553.918,160.222 554.584,160.722 555.5,161C 562.418,161.929 569.085,161.429 575.5,159.5C 578.01,159.946 580.01,159.28 581.5,157.5C 585.844,156.657 589.177,154.324 591.5,150.5C 591.5,149.833 591.5,149.167 591.5,148.5C 593.203,147.34 593.869,148.007 593.5,150.5 Z" />
  </g>
  <g>
    <path style="opacity:1" fill="#4c085e" d="M 553.5,159.5 C 560.845,160.615 568.178,160.615 575.5,159.5C 569.085,161.429 562.418,161.929 555.5,161C 554.584,160.722 553.918,160.222 553.5,159.5 Z" />
  </g>
</svg>